<?xml version="1.0" encoding="utf-8"?>
<!-- Generator: Adobe Illustrator 19.0.0, SVG Export Plug-In . SVG Version: 6.00 Build 0)  -->
<svg version="1.1" id="Camada_1" xmlns="http://www.w3.org/2000/svg" xmlns:xlink="http://www.w3.org/1999/xlink" x="0px" y="0px"
	 viewBox="761 -671 2134 2134" style="enable-background:new 761 -671 2134 2134;" xml:space="preserve">
<style type="text/css">
	.st0{fill:none;stroke:#02AB84;stroke-width:133.33;stroke-linecap:round;stroke-miterlimit:10;}
	.st1{fill:#633104;}
	.st2{font-family:'Arial-BoldMT';}
	.st3{font-size:487.5004px;}
</style>
<g>
	<path class="st0" d="M1657.2-17.2c-20.4-100-44.9-234.5-44.9-305.1c0-0.5,0-0.9,0-1.4c0-117.4,96.6-214,214-214c0.5,0,0.9,0,1.4,0
		c119,0,215.4,98.7,215.4,215.4c0,68.8-24.4,204-44.9,305.1"/>
	<path class="st0" d="M1657.2,808.5c-20.5,100.2-44.9,234-44.9,305.1c0,0.5,0,0.9,0,1.4c0,117.4,96.6,214,214,214c0.5,0,0.9,0,1.4,0
		c119,0,215.4-98.7,215.4-215.4c0-68.9-24.4-203.9-44.9-305.1"/>
	<path class="st0" d="M2240.5,225.2c100.2-20.5,234-44.9,305.1-44.9c0.5,0,0.9,0,1.4,0c117.4,0,214,96.6,214,214c0,0.5,0,0.9,0,1.4
		c0,119-98.7,215.4-215.4,215.4c-68.8,0-204-24.4-305.1-44.9"/>
	<path class="st0" d="M1414.8,225.1c-100-20.4-234.4-44.8-305.1-44.8c-0.5,0-0.9,0-1.4,0c-117.4,0-214,96.6-214,214
		c0,0.5,0,0.9,0,1.4c0,119,98.7,215.4,215.4,215.4c68.8,0,204-24.4,305.1-44.9"/>
	<path class="st0" d="M1998.2-17.2c56.5-85.3,134.6-196.9,184.9-247.1c40.2-40.7,95.1-63.7,152.3-63.7c57.2,0,112.1,23,152.3,63.7
		c84.1,84.1,82.5,222.1,0,304.6c-48.6,48.6-161.1,127.8-247.1,184.9"/>
	<path class="st0" d="M1414.8,566.2c-85.3,56.5-196.9,134.6-247.1,184.9c-40.7,40.2-63.7,95.1-63.7,152.3
		c0,57.2,23,112.1,63.7,152.3c84.1,84.1,222.1,82.5,304.6,0c48.6-48.6,127.8-161.1,184.9-247.1"/>
	<path class="st0" d="M2240.5,566.2c85.3,56.5,196.9,134.6,247.1,184.9c40.7,40.2,63.7,95.1,63.7,152.3
		c0,57.2-22.9,112.1-63.7,152.3c-84.1,84.1-222.1,82.5-304.6,0c-48.7-48.7-127.8-161-184.9-247.1"/>
	<path class="st0" d="M1657.2-17.2c-56.4-85.1-134.9-197.2-184.9-247.1C1432.1-305,1377.2-328,1320-328s-112.1,23-152.3,63.7
		c-84.1,84.1-82.5,222.1,0,304.6c48.4,48.4,161.2,127.8,247.1,184.9"/>
	<circle class="st0" cx="1827.7" cy="395.7" r="266.7"/>
</g>
<g transform="matrix(4.16667,0,0,4.16667,81.4249,-371.841)">
	<text transform="matrix(0.24 0 0 0.24 232.8723 165.9631)" class="st1 st2 st3">Luso</text>
	<text transform="matrix(0.24 0 0 0.24 177.005 282.9629)" class="st1 st2 st3">Nature</text>
</g>
</svg>
