<?xml version="1.0" encoding="UTF-8" standalone="no"?><!DOCTYPE svg PUBLIC "-//W3C//DTD SVG 1.1//EN" "http://www.w3.org/Graphics/SVG/1.1/DTD/svg11.dtd"><svg width="100%" height="100%" viewBox="0 0 8892 8892" version="1.1" xmlns="http://www.w3.org/2000/svg" xmlns:xlink="http://www.w3.org/1999/xlink" xml:space="preserve" xmlns:serif="http://www.serif.com/" style="fill-rule:evenodd;clip-rule:evenodd;stroke-linecap:round;stroke-miterlimit:10;"><g><path d="M3734.17,2724.17c-85,-416.667 -187.084,-977.084 -187.084,-1271.25l0,-5.834c0,-489.166 402.5,-891.666 891.667,-891.666l5.833,0c495.834,0 897.5,411.25 897.5,897.5c0,286.666 -101.666,850 -187.083,1271.25" style="fill:none;fill-rule:nonzero;stroke:#02ab84;stroke-width:555.54px;"/><path d="M3734.17,6164.58c-85.417,417.5 -187.084,975 -187.084,1271.25l0,5.834c0,489.166 402.5,891.666 891.667,891.666l5.833,0c495.834,0 897.5,-411.25 897.5,-897.5c0,-287.083 -101.666,-849.583 -187.083,-1271.25" style="fill:none;fill-rule:nonzero;stroke:#02ab84;stroke-width:555.54px;"/><path d="M6164.58,3734.17c417.5,-85.417 975,-187.084 1271.25,-187.084l5.834,0c489.166,0 891.666,402.5 891.666,891.667l0,5.833c0,495.834 -411.25,897.5 -897.5,897.5c-286.666,0 -850,-101.666 -1271.25,-187.083" style="fill:none;fill-rule:nonzero;stroke:#02ab84;stroke-width:555.54px;"/><path d="M2724.17,3733.75c-416.667,-85 -976.667,-186.667 -1271.25,-186.667l-5.834,0c-489.166,0 -891.666,402.5 -891.666,891.667l0,5.833c0,495.834 411.25,897.5 897.5,897.5c286.666,0 850,-101.666 1271.25,-187.083" style="fill:none;fill-rule:nonzero;stroke:#02ab84;stroke-width:555.54px;"/><path d="M5155,2724.17c235.417,-355.417 560.833,-820.417 770.417,-1029.58c167.5,-169.583 396.25,-265.416 634.583,-265.416c238.333,0 467.083,95.833 634.583,265.416c350.417,350.417 343.75,925.417 0,1269.17c-202.5,202.5 -671.25,532.5 -1029.58,770.417" style="fill:none;fill-rule:nonzero;stroke:#02ab84;stroke-width:555.54px;"/><path d="M2724.17,5155c-355.417,235.417 -820.417,560.833 -1029.58,770.417c-169.583,167.5 -265.416,396.25 -265.416,634.583c0,238.333 95.833,467.083 265.416,634.583c350.417,350.417 925.417,343.75 1269.17,0c202.5,-202.5 532.5,-671.25 770.417,-1029.58" style="fill:none;fill-rule:nonzero;stroke:#02ab84;stroke-width:555.54px;"/><path d="M6164.58,5155c355.417,235.417 820.417,560.833 1029.58,770.417c169.583,167.5 265.416,396.25 265.416,634.583c0,238.333 -95.416,467.083 -265.416,634.583c-350.417,350.417 -925.417,343.75 -1269.17,0c-202.917,-202.916 -532.5,-670.833 -770.417,-1029.58" style="fill:none;fill-rule:nonzero;stroke:#02ab84;stroke-width:555.54px;"/><path d="M3734.17,2724.17c-235,-354.584 -562.084,-821.667 -770.417,-1029.58c-167.5,-169.583 -396.25,-265.416 -634.583,-265.416c-238.334,0 -467.084,95.833 -634.584,265.416c-350.416,350.417 -343.75,925.417 0,1269.17c201.667,201.667 671.667,532.5 1029.58,770.417" style="fill:none;fill-rule:nonzero;stroke:#02ab84;stroke-width:555.54px;"/><circle cx="4444.58" cy="4444.58" r="1111.25" style="fill:none;stroke:#02ab84;stroke-width:555.54px;"/></g><g><path d="M4079.49,4135.93c-100.209,0 -179.428,-25.729 -237.657,-77.188c-58.229,-51.458 -87.344,-132.708 -87.344,-243.75c0,-93.438 18.282,-196.016 54.844,-307.735c36.563,-111.719 96.146,-208.542 178.75,-290.469c82.605,-81.927 188.23,-122.891 316.876,-122.891c159.792,0 245.782,91.406 257.969,274.219c29.792,-6.771 56.198,-23.359 79.219,-49.765c23.021,-26.407 44.688,-56.537 65,-90.391l65,0c-36.562,73.125 -69.062,130.338 -97.5,171.641c-28.437,41.302 -65.677,74.817 -111.719,100.547c-8.125,127.292 -34.193,239.01 -78.203,335.156c-44.011,96.146 -101.224,170.287 -171.641,222.423c-70.417,52.135 -148.282,78.203 -233.594,78.203Zm81.25,-182.813c50.104,0 96.823,-40.625 140.156,-121.875c43.334,-81.25 73.126,-181.459 89.376,-300.626c-32.5,-12.187 -48.75,-42.656 -48.75,-91.406c0,-52.812 18.958,-88.021 56.875,-105.625c-2.709,-43.334 -9.818,-73.464 -21.329,-90.391c-11.51,-16.927 -30.13,-25.391 -55.859,-25.391c-44.688,0 -87.344,32.162 -127.969,96.485c-40.625,64.323 -73.464,142.188 -98.516,233.594c-25.052,91.407 -37.578,171.641 -37.578,240.704c0,65 7.448,108.672 22.344,131.015c14.896,22.344 41.979,33.516 81.25,33.516Z" style="fill:#633104;"/><text x="1211.36px" y="4127.8px" style="font-family:'Lobster-Regular', 'Lobster';font-size:2031.25px;fill:#633104;">Lus</text><path d="M5285.05,6171.24c-98.854,0 -176.042,-26.068 -231.563,-78.204c-55.521,-52.135 -83.281,-133.724 -83.281,-244.766c0,-93.437 18.281,-196.354 54.844,-308.75c36.562,-112.396 96.146,-209.558 178.75,-291.485c82.604,-81.927 187.552,-122.891 314.844,-122.891c148.959,0 223.438,65 223.438,195.001c0,75.833 -21.667,145.573 -65,209.219c-43.334,63.646 -100.886,114.765 -172.657,153.359c-71.771,38.594 -148.281,60.599 -229.531,66.016c-2.709,29.792 -4.063,50.104 -4.063,60.938c0,112.396 41.979,168.594 125.938,168.594c37.917,0 78.542,-10.157 121.875,-30.469c43.333,-20.313 82.604,-46.042 117.813,-77.188c-36.563,200.417 -153.698,300.626 -351.407,300.626Zm4.062,-520.001c51.459,-1.354 99.87,-18.281 145.235,-50.782c45.365,-32.5 81.927,-74.14 109.688,-124.922c27.76,-50.781 41.64,-103.932 41.64,-159.453c0,-55.521 -16.927,-83.281 -50.781,-83.281c-47.396,0 -94.453,42.994 -141.172,128.984c-46.719,85.99 -81.589,182.474 -104.61,289.454Z" style="fill:#633104;"/><text x="241.443px" y="6159.05px" style="font-family:'Lobster-Regular', 'Lobster';font-size:2031.25px;fill:#633104;">Natur</text></g></svg>